P2
# feep.pgm
30 7
80
80 80 80 80 80 80 80 80 80 80 80 80 80 80 80 80 80 80 80 80 80 80 80 80 80 80 80 80 80 80 
80 3 3 3 3 80 80 4 80 80 5 80 80 80 80 6 80 80 80 6 80 80 7 80 80 8 8 8 8 80 
80 3 80 80 80 80 80 4 80 80 5 80 80 80 80 6 80 80 80 6 80 80 7 80 80 8 80 80 8 80 
80 3 3 3 3 80 80 4 80 80 5 80 80 80 80 80 6 80 6 80 80 80 7 80 80 8 80 80 8 80 
80 80 80 80 3 80 80 4 80 80 5 80 80 80 80 80 6 80 6 80 80 80 7 80 80 8 80 80 8 80 
80 3 3 3 3 80 80 4 80 80 5 5 5 80 80 80 80 6 80 80 80 80 7 80 80 8 8 8 8 80 
80 80 80 80 80 80 80 80 80 80 80 80 80 80 80 80 80 80 80 80 80 80 80 80 80 80 80 80 80 80 
